
<svg width="23px" height="26px" viewBox="0 0 23 26" version="1.1" xmlns="http://www.w3.org/2000/svg" xmlns:xlink="http://www.w3.org/1999/xlink">
  <!-- Generator: Sketch 44.1 (41455) - http://www.bohemiancoding.com/sketch -->
  <desc>Created with Sketch.</desc>
  <defs></defs>
  <g id="Page-1" stroke="none" stroke-width="1" fill="none" fill-rule="evenodd">
    <g id="Feed/Mobile" transform="translate(-176.000000, -18.000000)" fill-rule="nonzero" fill="#FFFFFF">
      <g id="logo-symbol-startae" transform="translate(176.000000, 18.000000)">
        <path d="M22.9973508,3.94831578 L22.9973508,0.165135091 C22.9973508,0.165135091 22.9973508,0.159122089 22.9973508,0.157117755 C22.9973508,0.155113421 22.9973508,0.139078748 22.9973508,0.131061411 L22.9913447,0.106007234 C22.9913447,0.106007234 22.9913447,0.106007234 22.9913447,0.0979898978 C22.9879773,0.0932071233 22.9849661,0.0881827166 22.9823355,0.0829573917 C22.9783715,0.0753934034 22.9740282,0.0680347944 22.9693223,0.0609097162 L22.951304,0.0418685418 C22.9452979,0.0418685418 22.9402928,0.030844704 22.9332857,0.0258338687 L22.9032552,0.0148100309 L22.889241,0.00679269435 L22.8822339,0.00679269435 C22.8738041,0.0038417096 22.8650765,0.00182531819 22.8562075,0.000779691926 C22.8475631,-0.000259897309 22.8388255,-0.000259897309 22.8301811,0.000779691926 L5.82391466,0.000779691926 C5.77770554,0.000688342997 5.73337641,0.0190898425 5.70078965,0.0518902125 L0.0440463875,6.02079728 C0.0300334466,6.03551839 0.0185350521,6.05244723 0.0100118323,6.07090564 C0.0100118323,6.07591647 0.0100118323,6.08092731 0.0100118323,6.08694031 C0.00420633163,6.10166362 0.000825677277,6.11723251 1.66906128e-06,6.13304 C1.66906128e-06,6.13304 1.66906128e-06,6.14005517 1.66906128e-06,6.14406383 L1.66906128e-06,12.2101811 C-0.000201747254,12.2564655 0.0181958621,12.3008872 0.0510535018,12.3334477 L5.25633841,17.5397056 L0.0510535018,22.4022202 C0.0370405609,22.4169413 0.0255421664,22.4338702 0.0170189466,22.4523286 C0.0170189466,22.4523286 0.0170189466,22.4633524 0.0170189466,22.4683632 C0.0112087681,22.4834332 0.00782983426,22.4993324 0.00700878335,22.5154651 C0.00700878335,22.5154651 0.00700878335,22.5214781 0.00700878335,22.5254868 L0.00700878335,25.8256229 C0.00700878335,25.9219287 0.0849904113,26 0.181185624,26 L17.5618321,26 C17.5845696,25.9997892 17.6070343,25.9950185 17.6278992,25.9859697 C17.6494091,25.9779575 17.6688906,25.9652971 17.6849571,25.9488895 L17.6849571,25.9488895 L22.9442969,20.637404 C22.977348,20.6049741 22.9957812,20.5604667 22.9953487,20.5141375 L22.9953487,14.2004849 C22.9953487,14.2004849 22.9953487,14.1944719 22.9953487,14.1904632 C22.9945247,14.1746558 22.9911441,14.1590869 22.9853386,14.1443636 C22.9853386,14.1383506 22.9853386,14.1333397 22.9853386,14.1283289 C22.9773216,14.1095883 22.9657652,14.092574 22.951304,14.0782205 L18.4887732,9.01928116 L22.9653183,4.08260617 C22.9941062,4.04421322 23.0057047,3.99558864 22.9973508,3.94831578 L22.9973508,3.94831578 Z M22,15 L22,17 L6,17 L6,15 L22,15 Z M1,6 L17,6 L17,8 L1,8 L1,6.00390816 L1,6 Z M5.96304291,1 L21,1 L17.1549882,5 L2,5 L5.96304291,1 Z M1,10 L5,14.761162 L5,17 L1,12.4391815 L1,10.0030052 L1,10 Z M5.89163827,18 L21,18 L16.9270773,22 L2,22 L5.89163827,18 Z M1.00299607,23 L17,23 L17,25 L1,25 L1,23 L1.00299607,23 Z M18,24 L18,22.2898411 L22,18 L22,19.8623014 L18,24 Z M6.37453033,14 L2,9 L17.5593407,9 L22,14 L6.37252643,14 L6.37453033,14 Z M18,8 L18,5.18648906 L22,1 L22,3.64795433 L18,8 Z"></path>
      </g>
    </g>
  </g>
</svg>